<svg xmlns="http://www.w3.org/2000/svg" xmlns:xlink="http://www.w3.org/1999/xlink" width="300" zoomAndPan="magnify" viewBox="0 0 224.87999 225" height="300" preserveAspectRatio="xMidYMid meet" version="1.0"><defs><g/><clipPath id="e3671a9ea9"><path d="M 58 22.546875 L 169.355469 22.546875 L 169.355469 77 L 58 77 Z M 58 22.546875 " clip-rule="nonzero"/></clipPath><clipPath id="2bef672ab0"><path d="M 55.4375 83 L 146 83 L 146 116 L 55.4375 116 Z M 55.4375 83 " clip-rule="nonzero"/></clipPath><clipPath id="30512c31b4"><path d="M 55.4375 64 L 80 64 L 80 76 L 55.4375 76 Z M 55.4375 64 " clip-rule="nonzero"/></clipPath><clipPath id="bafab16640"><path d="M 57 82 L 169.355469 82 L 169.355469 136.46875 L 57 136.46875 Z M 57 82 " clip-rule="nonzero"/></clipPath><clipPath id="c25768aa64"><path d="M 55.4375 74 L 169.355469 74 L 169.355469 85 L 55.4375 85 Z M 55.4375 74 " clip-rule="nonzero"/></clipPath></defs><path fill="#74b0e1" d="M 131.210938 92.699219 C 134.179688 92.699219 136.589844 90.296875 136.589844 87.332031 C 136.589844 84.367188 134.179688 81.964844 131.210938 81.964844 C 128.457031 81.964844 126.1875 84.035156 125.875 86.703125 L 103.582031 86.703125 L 97.382812 92.894531 L 79.515625 92.894531 L 80.859375 94.234375 L 97.9375 94.234375 L 104.140625 88.042969 L 125.886719 88.042969 C 126.238281 90.671875 128.484375 92.699219 131.210938 92.699219 " fill-opacity="1" fill-rule="nonzero"/><path fill="#74b0e1" d="M 81.941406 59.476562 L 83.839844 59.476562 L 93.910156 49.425781 L 114.328125 49.425781 C 114.675781 52.058594 116.925781 54.09375 119.65625 54.09375 C 122.625 54.09375 125.035156 51.691406 125.035156 48.726562 C 125.035156 45.765625 122.625 43.359375 119.65625 43.359375 C 116.90625 43.359375 114.640625 45.425781 114.320312 48.085938 L 93.355469 48.085938 L 81.941406 59.476562 " fill-opacity="1" fill-rule="nonzero"/><g clip-path="url(#e3671a9ea9)"><path fill="#74b0e1" d="M 143.664062 71.621094 C 143.664062 68.65625 141.253906 66.253906 138.285156 66.253906 C 135.542969 66.253906 133.285156 68.304688 132.957031 70.949219 L 105.742188 70.949219 L 95.921875 61.152344 L 66.011719 61.152344 C 73.339844 42.679688 91.390625 29.605469 112.503906 29.605469 C 139.195312 29.605469 160.996094 50.480469 162.421875 76.765625 L 169.503906 76.765625 C 168.074219 46.582031 143.101562 22.546875 112.503906 22.546875 C 87.421875 22.546875 66.121094 38.699219 58.46875 61.152344 L 58.464844 61.152344 C 58.367188 61.441406 58.277344 61.730469 58.183594 62.019531 C 58.167969 62.070312 58.148438 62.117188 58.132812 62.167969 C 58.097656 62.277344 58.0625 62.382812 58.027344 62.492188 L 95.367188 62.492188 L 105.183594 72.289062 L 132.957031 72.289062 C 133.285156 74.9375 135.542969 76.988281 138.285156 76.988281 C 141.253906 76.988281 143.664062 74.585938 143.664062 71.621094 " fill-opacity="1" fill-rule="nonzero"/></g><g clip-path="url(#2bef672ab0)"><path fill="#74b0e1" d="M 134.964844 110.96875 C 135.304688 113.609375 137.558594 115.648438 140.292969 115.648438 C 143.261719 115.648438 145.671875 113.246094 145.671875 110.28125 C 145.671875 107.316406 143.261719 104.914062 140.292969 104.914062 C 137.546875 104.914062 135.285156 106.972656 134.960938 109.628906 L 93.910156 109.628906 L 67.730469 83.5 L 55.578125 83.5 C 55.609375 83.945312 55.648438 84.394531 55.6875 84.839844 L 67.171875 84.839844 L 93.355469 110.96875 L 134.964844 110.96875 " fill-opacity="1" fill-rule="nonzero"/></g><g clip-path="url(#30512c31b4)"><path fill="#74b0e1" d="M 77.242188 64.167969 L 67.171875 74.21875 L 55.683594 74.21875 C 55.644531 74.660156 55.605469 75.109375 55.578125 75.558594 L 67.730469 75.558594 L 79.140625 64.167969 L 77.242188 64.167969 " fill-opacity="1" fill-rule="nonzero"/></g><g clip-path="url(#bafab16640)"><path fill="#74b0e1" d="M 112.503906 136.460938 C 143.097656 136.460938 168.066406 112.433594 169.503906 82.253906 L 162.421875 82.253906 C 160.992188 108.535156 139.191406 129.402344 112.503906 129.402344 C 90.03125 129.402344 71.035156 114.601562 64.738281 94.234375 L 74.210938 94.234375 L 72.871094 92.894531 L 57.027344 92.894531 C 57.074219 93.078125 57.121094 93.257812 57.167969 93.441406 C 57.164062 93.441406 57.164062 93.441406 57.160156 93.441406 C 57.210938 93.644531 57.265625 93.839844 57.320312 94.042969 C 57.335938 94.105469 57.351562 94.167969 57.367188 94.234375 L 57.371094 94.234375 C 63.875 118.550781 86.09375 136.460938 112.503906 136.460938 " fill-opacity="1" fill-rule="nonzero"/></g><g clip-path="url(#c25768aa64)"><path fill="#74b0e1" d="M 180.070312 84.875 C 183.039062 84.875 185.445312 82.472656 185.445312 79.507812 C 185.445312 76.542969 183.039062 74.140625 180.070312 74.140625 C 177.328125 74.140625 175.070312 76.191406 174.738281 78.839844 L 55.445312 78.839844 C 55.445312 79.0625 55.4375 79.28125 55.4375 79.503906 C 55.4375 79.730469 55.445312 79.953125 55.445312 80.179688 L 174.738281 80.179688 C 175.070312 82.824219 177.328125 84.875 180.070312 84.875 " fill-opacity="1" fill-rule="nonzero"/></g><g fill="#ffffff" fill-opacity="1"><g transform="translate(38.601405, 168.328076)"><g><path d="M 0.535156 -16.535156 L 4.957031 -16.535156 L 4.957031 -0.0546875 L 6.835938 -0.0546875 L 6.835938 -16.535156 L 11.257812 -16.535156 L 11.257812 -18.277344 L 0.535156 -18.277344 Z M 0.535156 -16.535156 "/></g></g></g><g fill="#ffffff" fill-opacity="1"><g transform="translate(51.760797, 168.328076)"><g><path d="M 12.839844 0 L 12.839844 -1.742188 L 3.886719 -1.742188 L 3.886719 -8.226562 L 12.570312 -8.226562 L 12.570312 -9.996094 L 3.886719 -9.996094 L 3.886719 -16.484375 L 12.839844 -16.484375 L 12.839844 -18.226562 L 2.011719 -18.226562 L 2.011719 0 Z M 12.839844 0 "/></g></g></g><g fill="#ffffff" fill-opacity="1"><g transform="translate(67.975471, 168.328076)"><g><path d="M 18.734375 -5.574219 L 16.671875 -5.574219 C 16.027344 -4.394531 15.144531 -3.429688 14.019531 -2.734375 C 12.890625 -2.011719 11.632812 -1.660156 10.292969 -1.660156 C 8.28125 -1.660156 6.566406 -2.386719 5.144531 -3.886719 C 3.753906 -5.308594 3.082031 -7.050781 3.082031 -9.085938 C 3.082031 -11.121094 3.753906 -12.863281 5.144531 -14.3125 C 5.789062 -14.984375 6.566406 -15.519531 7.449219 -15.921875 C 8.308594 -16.324219 9.167969 -16.535156 10.023438 -16.535156 C 10.855469 -16.535156 11.578125 -16.429688 12.222656 -16.242188 C 14.179688 -15.652344 15.652344 -14.472656 16.644531 -12.675781 L 18.707031 -12.675781 C 18.011719 -14.394531 16.914062 -15.785156 15.382812 -16.859375 C 13.828125 -17.929688 12.140625 -18.46875 10.292969 -18.46875 C 7.746094 -18.46875 5.601562 -17.527344 3.832031 -15.679688 C 3 -14.820312 2.359375 -13.804688 1.902344 -12.675781 C 1.421875 -11.550781 1.207031 -10.34375 1.207031 -9.085938 C 1.207031 -6.511719 2.0625 -4.34375 3.832031 -2.519531 C 5.601562 -0.644531 7.746094 0.269531 10.292969 0.269531 C 12.140625 0.269531 13.828125 -0.269531 15.410156 -1.339844 C 16.9375 -2.414062 18.039062 -3.804688 18.734375 -5.574219 Z M 18.734375 -5.574219 "/></g></g></g><g fill="#ffffff" fill-opacity="1"><g transform="translate(88.880281, 168.328076)"><g><path d="M 3.886719 0 L 3.886719 -8.148438 L 12.167969 -8.148438 L 12.167969 0 L 14.042969 0 L 14.042969 -18.226562 L 12.167969 -18.226562 L 12.167969 -10.023438 L 3.886719 -10.023438 L 3.886719 -18.226562 L 2.011719 -18.226562 L 2.011719 0 Z M 3.886719 0 "/></g></g></g><g fill="#ffffff" fill-opacity="1"><g transform="translate(106.300985, 168.328076)"><g><path d="M 0.535156 -16.535156 L 4.957031 -16.535156 L 4.957031 -0.0546875 L 6.835938 -0.0546875 L 6.835938 -16.535156 L 11.257812 -16.535156 L 11.257812 -18.277344 L 0.535156 -18.277344 Z M 0.535156 -16.535156 "/></g></g></g><g fill="#ffffff" fill-opacity="1"><g transform="translate(119.46038, 168.328076)"><g><path d="M 18.066406 -9.167969 C 18.066406 -7.074219 17.3125 -5.308594 15.867188 -3.859375 C 14.394531 -2.386719 12.625 -1.660156 10.558594 -1.660156 C 8.496094 -1.660156 6.726562 -2.386719 5.28125 -3.859375 C 3.804688 -5.308594 3.082031 -7.074219 3.082031 -9.167969 C 3.082031 -11.203125 3.804688 -12.972656 5.28125 -14.445312 C 6.726562 -15.894531 8.496094 -16.644531 10.558594 -16.644531 C 12.625 -16.644531 14.394531 -15.894531 15.867188 -14.445312 C 17.3125 -12.972656 18.066406 -11.203125 18.066406 -9.167969 Z M 19.941406 -9.167969 C 19.941406 -10.453125 19.671875 -11.660156 19.191406 -12.8125 C 18.707031 -13.9375 18.039062 -14.929688 17.179688 -15.785156 C 16.324219 -16.617188 15.332031 -17.289062 14.207031 -17.769531 C 13.050781 -18.253906 11.847656 -18.519531 10.558594 -18.519531 C 9.273438 -18.519531 8.039062 -18.253906 6.914062 -17.769531 C 5.789062 -17.289062 4.796875 -16.617188 3.941406 -15.785156 C 3.082031 -14.929688 2.414062 -13.9375 1.929688 -12.8125 C 1.449219 -11.660156 1.207031 -10.453125 1.207031 -9.167969 C 1.207031 -7.878906 1.449219 -6.648438 1.929688 -5.519531 C 2.414062 -4.367188 3.082031 -3.378906 3.941406 -2.519531 C 4.796875 -1.660156 5.789062 -0.992188 6.914062 -0.507812 C 8.039062 -0.0273438 9.273438 0.214844 10.558594 0.214844 C 11.847656 0.214844 13.050781 -0.0273438 14.207031 -0.507812 C 15.332031 -0.992188 16.324219 -1.660156 17.179688 -2.519531 C 18.039062 -3.378906 18.707031 -4.367188 19.191406 -5.519531 C 19.671875 -6.648438 19.941406 -7.878906 19.941406 -9.167969 Z M 19.941406 -9.167969 "/></g></g></g><g fill="#ffffff" fill-opacity="1"><g transform="translate(141.973235, 168.328076)"><g><path d="M 3.886719 -13.429688 L 14.125 1.125 L 14.125 -18.226562 L 12.25 -18.226562 L 12.25 -4.824219 L 2.011719 -19.378906 L 2.011719 0 L 3.886719 0 Z M 3.886719 -13.429688 "/></g></g></g><g fill="#ffffff" fill-opacity="1"><g transform="translate(159.474349, 168.328076)"><g><path d="M 3.886719 0 L 3.886719 -18.226562 L 2.011719 -18.226562 L 2.011719 0 Z M 3.886719 0 "/></g></g></g><g fill="#ffffff" fill-opacity="1"><g transform="translate(166.737567, 168.328076)"><g><path d="M 18.734375 -5.574219 L 16.671875 -5.574219 C 16.027344 -4.394531 15.144531 -3.429688 14.019531 -2.734375 C 12.890625 -2.011719 11.632812 -1.660156 10.292969 -1.660156 C 8.28125 -1.660156 6.566406 -2.386719 5.144531 -3.886719 C 3.753906 -5.308594 3.082031 -7.050781 3.082031 -9.085938 C 3.082031 -11.121094 3.753906 -12.863281 5.144531 -14.3125 C 5.789062 -14.984375 6.566406 -15.519531 7.449219 -15.921875 C 8.308594 -16.324219 9.167969 -16.535156 10.023438 -16.535156 C 10.855469 -16.535156 11.578125 -16.429688 12.222656 -16.242188 C 14.179688 -15.652344 15.652344 -14.472656 16.644531 -12.675781 L 18.707031 -12.675781 C 18.011719 -14.394531 16.914062 -15.785156 15.382812 -16.859375 C 13.828125 -17.929688 12.140625 -18.46875 10.292969 -18.46875 C 7.746094 -18.46875 5.601562 -17.527344 3.832031 -15.679688 C 3 -14.820312 2.359375 -13.804688 1.902344 -12.675781 C 1.421875 -11.550781 1.207031 -10.34375 1.207031 -9.085938 C 1.207031 -6.511719 2.0625 -4.34375 3.832031 -2.519531 C 5.601562 -0.644531 7.746094 0.269531 10.292969 0.269531 C 12.140625 0.269531 13.828125 -0.269531 15.410156 -1.339844 C 16.9375 -2.414062 18.039062 -3.804688 18.734375 -5.574219 Z M 18.734375 -5.574219 "/></g></g></g><g fill="#74b0e1" fill-opacity="1"><g transform="translate(14.638646, 185.389733)"><g><path d="M 6.457031 -2.109375 C 6.386719 -2.914062 6.070312 -3.648438 5.417969 -3.949219 C 6.164062 -4.183594 6.851562 -4.789062 6.851562 -5.847656 C 6.851562 -7.199219 6.011719 -7.84375 4.847656 -7.992188 C 4.484375 -8.039062 4.207031 -8.039062 3.796875 -8.039062 L 1.164062 -8.039062 L 1.164062 0 L 2.167969 0 L 2.167969 -3.460938 L 3.683594 -3.460938 C 3.867188 -3.460938 4.066406 -3.460938 4.253906 -3.449219 C 5.046875 -3.390625 5.359375 -2.84375 5.453125 -2.015625 C 5.558594 -1.023438 5.664062 -0.511719 5.882812 0 L 6.992188 0 C 6.664062 -0.429688 6.546875 -1.058594 6.457031 -2.109375 Z M 2.167969 -4.277344 L 2.167969 -7.222656 L 3.796875 -7.222656 C 4.160156 -7.222656 4.382812 -7.210938 4.601562 -7.175781 C 5.347656 -7.0625 5.78125 -6.652344 5.78125 -5.757812 C 5.78125 -4.847656 5.230469 -4.371094 4.484375 -4.300781 C 4.265625 -4.277344 4.066406 -4.277344 3.707031 -4.277344 Z M 2.167969 -4.277344 "/></g></g></g><g fill="#74b0e1" fill-opacity="1"><g transform="translate(24.354905, 185.389733)"><g><path d="M 7.597656 -8.039062 L 6.59375 -8.039062 L 6.59375 -4.359375 L 2.167969 -4.359375 L 2.167969 -8.039062 L 1.164062 -8.039062 L 1.164062 0 L 2.167969 0 L 2.167969 -3.519531 L 6.59375 -3.519531 L 6.59375 0 L 7.597656 0 Z M 7.597656 -8.039062 "/></g></g></g><g fill="#74b0e1" fill-opacity="1"><g transform="translate(35.364054, 185.389733)"><g><path d="M 4.066406 -3.167969 L 6.910156 -8.039062 L 5.78125 -8.039062 L 3.613281 -4.136719 L 1.375 -8.039062 L 0.222656 -8.039062 L 3.066406 -3.167969 L 3.066406 0 L 4.066406 0 Z M 4.066406 -3.167969 "/></g></g></g><g fill="#74b0e1" fill-opacity="1"><g transform="translate(44.637697, 185.389733)"><g><path d="M 7.132812 -7.222656 L 7.132812 -8.039062 L 0.394531 -8.039062 L 0.394531 -7.222656 L 3.261719 -7.222656 L 3.261719 0 L 4.265625 0 L 4.265625 -7.222656 Z M 7.132812 -7.222656 "/></g></g></g><g fill="#74b0e1" fill-opacity="1"><g transform="translate(54.272419, 185.389733)"><g><path d="M 7.597656 -8.039062 L 6.59375 -8.039062 L 6.59375 -4.359375 L 2.167969 -4.359375 L 2.167969 -8.039062 L 1.164062 -8.039062 L 1.164062 0 L 2.167969 0 L 2.167969 -3.519531 L 6.59375 -3.519531 L 6.59375 0 L 7.597656 0 Z M 7.597656 -8.039062 "/></g></g></g><g fill="#74b0e1" fill-opacity="1"><g transform="translate(65.281568, 185.389733)"><g><path d="M 9.183594 -8.039062 L 7.5625 -8.039062 L 5.195312 -0.851562 L 2.820312 -8.039062 L 1.164062 -8.039062 L 1.164062 0 L 2.167969 0 L 2.167969 -4.136719 C 2.167969 -5.125 2.167969 -6.234375 2.144531 -7.109375 C 2.398438 -6.246094 2.773438 -5.125 3.097656 -4.171875 L 4.542969 0 L 5.804688 0 L 7.222656 -4.148438 C 7.5625 -5.125 7.933594 -6.257812 8.203125 -7.132812 C 8.179688 -6.257812 8.179688 -5.136719 8.179688 -4.136719 L 8.179688 0 L 9.183594 0 Z M 9.183594 -8.039062 "/></g></g></g><g fill="#74b0e1" fill-opacity="1"><g transform="translate(77.874797, 185.389733)"><g><path d="M 3.660156 -8.203125 C 2.179688 -8.203125 0.980469 -7.328125 0.980469 -5.941406 C 0.980469 -4.613281 1.96875 -4.042969 3.390625 -3.71875 C 4.800781 -3.390625 5.359375 -2.949219 5.359375 -1.96875 C 5.359375 -1.128906 4.613281 -0.628906 3.695312 -0.628906 C 2.644531 -0.628906 1.910156 -1.222656 1.679688 -2.285156 L 0.605469 -2.285156 C 0.78125 -0.734375 1.898438 0.164062 3.671875 0.164062 C 5.21875 0.164062 6.433594 -0.746094 6.433594 -2.15625 C 6.433594 -3.519531 5.546875 -4.242188 3.773438 -4.648438 C 2.550781 -4.929688 2.050781 -5.300781 2.050781 -6.175781 C 2.050781 -7.015625 2.726562 -7.410156 3.578125 -7.410156 C 4.589844 -7.410156 5.183594 -6.828125 5.277344 -5.8125 L 6.351562 -5.8125 C 6.199219 -7.1875 5.324219 -8.203125 3.660156 -8.203125 Z M 3.660156 -8.203125 "/></g></g></g><g fill="#74b0e1" fill-opacity="1"><g transform="translate(87.19503, 185.389733)"><g/></g></g><g fill="#74b0e1" fill-opacity="1"><g transform="translate(92.217287, 185.389733)"><g><path d="M 4.347656 -8.203125 C 1.898438 -8.203125 0.546875 -6.480469 0.546875 -4.019531 C 0.546875 -1.574219 1.898438 0.164062 4.347656 0.164062 C 6.792969 0.164062 8.144531 -1.574219 8.144531 -4.019531 C 8.144531 -6.480469 6.792969 -8.203125 4.347656 -8.203125 Z M 4.347656 -0.628906 C 2.65625 -0.628906 1.667969 -1.933594 1.667969 -4.019531 C 1.667969 -6.117188 2.65625 -7.410156 4.347656 -7.410156 C 6.035156 -7.410156 7.027344 -6.117188 7.027344 -4.019531 C 7.027344 -1.933594 6.035156 -0.628906 4.347656 -0.628906 Z M 4.347656 -0.628906 "/></g></g></g><g fill="#74b0e1" fill-opacity="1"><g transform="translate(103.307961, 185.389733)"><g><path d="M 2.167969 -7.222656 L 6.398438 -7.222656 L 6.398438 -8.039062 L 1.164062 -8.039062 L 1.164062 0 L 2.167969 0 L 2.167969 -3.613281 L 5.929688 -3.613281 L 5.929688 -4.429688 L 2.167969 -4.429688 Z M 2.167969 -7.222656 "/></g></g></g><g fill="#74b0e1" fill-opacity="1"><g transform="translate(112.418543, 185.389733)"><g/></g></g><g fill="#74b0e1" fill-opacity="1"><g transform="translate(117.4408, 185.389733)"><g><path d="M 2.167969 0 L 2.167969 -8.039062 L 1.164062 -8.039062 L 1.164062 0 Z M 2.167969 0 "/></g></g></g><g fill="#74b0e1" fill-opacity="1"><g transform="translate(123.022145, 185.389733)"><g><path d="M 7.457031 0 L 7.433594 -8.039062 L 6.457031 -8.039062 L 6.457031 -4.019531 C 6.457031 -3.074219 6.46875 -1.921875 6.492188 -0.980469 L 2.703125 -8.039062 L 1.164062 -8.039062 L 1.164062 0 L 2.167969 0 L 2.167969 -4.019531 C 2.167969 -4.964844 2.15625 -6.117188 2.132812 -7.0625 L 5.917969 0 Z M 7.457031 0 "/></g></g></g><g fill="#74b0e1" fill-opacity="1"><g transform="translate(133.891523, 185.389733)"><g><path d="M 7.457031 0 L 7.433594 -8.039062 L 6.457031 -8.039062 L 6.457031 -4.019531 C 6.457031 -3.074219 6.46875 -1.921875 6.492188 -0.980469 L 2.703125 -8.039062 L 1.164062 -8.039062 L 1.164062 0 L 2.167969 0 L 2.167969 -4.019531 C 2.167969 -4.964844 2.15625 -6.117188 2.132812 -7.0625 L 5.917969 0 Z M 7.457031 0 "/></g></g></g><g fill="#74b0e1" fill-opacity="1"><g transform="translate(144.760901, 185.389733)"><g><path d="M 4.347656 -8.203125 C 1.898438 -8.203125 0.546875 -6.480469 0.546875 -4.019531 C 0.546875 -1.574219 1.898438 0.164062 4.347656 0.164062 C 6.792969 0.164062 8.144531 -1.574219 8.144531 -4.019531 C 8.144531 -6.480469 6.792969 -8.203125 4.347656 -8.203125 Z M 4.347656 -0.628906 C 2.65625 -0.628906 1.667969 -1.933594 1.667969 -4.019531 C 1.667969 -6.117188 2.65625 -7.410156 4.347656 -7.410156 C 6.035156 -7.410156 7.027344 -6.117188 7.027344 -4.019531 C 7.027344 -1.933594 6.035156 -0.628906 4.347656 -0.628906 Z M 4.347656 -0.628906 "/></g></g></g><g fill="#74b0e1" fill-opacity="1"><g transform="translate(155.851574, 185.389733)"><g><path d="M 4.496094 0 L 7.386719 -8.039062 L 6.316406 -8.039062 L 3.84375 -0.757812 L 1.457031 -8.039062 L 0.371094 -8.039062 L 3.144531 0 Z M 4.496094 0 "/></g></g></g><g fill="#74b0e1" fill-opacity="1"><g transform="translate(165.602779, 185.389733)"><g><path d="M 5.3125 -2.84375 L 6.269531 0 L 7.351562 0 L 4.578125 -8.039062 L 3.226562 -8.039062 L 0.339844 0 L 1.410156 0 L 2.355469 -2.84375 Z M 2.632812 -3.660156 L 3.878906 -7.246094 L 5.046875 -3.660156 Z M 2.632812 -3.660156 "/></g></g></g><g fill="#74b0e1" fill-opacity="1"><g transform="translate(175.551991, 185.389733)"><g><path d="M 7.132812 -7.222656 L 7.132812 -8.039062 L 0.394531 -8.039062 L 0.394531 -7.222656 L 3.261719 -7.222656 L 3.261719 0 L 4.265625 0 L 4.265625 -7.222656 Z M 7.132812 -7.222656 "/></g></g></g><g fill="#74b0e1" fill-opacity="1"><g transform="translate(185.186713, 185.389733)"><g><path d="M 2.167969 0 L 2.167969 -8.039062 L 1.164062 -8.039062 L 1.164062 0 Z M 2.167969 0 "/></g></g></g><g fill="#74b0e1" fill-opacity="1"><g transform="translate(190.768057, 185.389733)"><g><path d="M 4.347656 -8.203125 C 1.898438 -8.203125 0.546875 -6.480469 0.546875 -4.019531 C 0.546875 -1.574219 1.898438 0.164062 4.347656 0.164062 C 6.792969 0.164062 8.144531 -1.574219 8.144531 -4.019531 C 8.144531 -6.480469 6.792969 -8.203125 4.347656 -8.203125 Z M 4.347656 -0.628906 C 2.65625 -0.628906 1.667969 -1.933594 1.667969 -4.019531 C 1.667969 -6.117188 2.65625 -7.410156 4.347656 -7.410156 C 6.035156 -7.410156 7.027344 -6.117188 7.027344 -4.019531 C 7.027344 -1.933594 6.035156 -0.628906 4.347656 -0.628906 Z M 4.347656 -0.628906 "/></g></g></g><g fill="#74b0e1" fill-opacity="1"><g transform="translate(201.858731, 185.389733)"><g><path d="M 7.457031 0 L 7.433594 -8.039062 L 6.457031 -8.039062 L 6.457031 -4.019531 C 6.457031 -3.074219 6.46875 -1.921875 6.492188 -0.980469 L 2.703125 -8.039062 L 1.164062 -8.039062 L 1.164062 0 L 2.167969 0 L 2.167969 -4.019531 C 2.167969 -4.964844 2.15625 -6.117188 2.132812 -7.0625 L 5.917969 0 Z M 7.457031 0 "/></g></g></g></svg>