<svg xmlns="http://www.w3.org/2000/svg"
    xmlns:xlink="http://www.w3.org/1999/xlink" width="300" zoomAndPan="magnify" viewBox="0 0 224.87999 225" height="300" preserveAspectRatio="xMidYMid meet" version="1.0">
    <defs>
        <clipPath id="591363cae1">
            <path d="M 32 29.34375 L 195.523438 29.34375 L 195.523438 109 L 32 109 Z M 32 29.34375 " clip-rule="nonzero"/>
        </clipPath>
        <clipPath id="8417681d61">
            <path d="M 29.109375 118 L 161 118 L 161 166 L 29.109375 166 Z M 29.109375 118 " clip-rule="nonzero"/>
        </clipPath>
        <clipPath id="1c8977339c">
            <path d="M 29.109375 90 L 64 90 L 64 107 L 29.109375 107 Z M 29.109375 90 " clip-rule="nonzero"/>
        </clipPath>
        <clipPath id="e9203d753b">
            <path d="M 31 116 L 195.523438 116 L 195.523438 195.757812 L 31 195.757812 Z M 31 116 " clip-rule="nonzero"/>
        </clipPath>
        <clipPath id="44d09bb528">
            <path d="M 29.109375 104 L 195.523438 104 L 195.523438 121 L 29.109375 121 Z M 29.109375 104 " clip-rule="nonzero"/>
        </clipPath>
    </defs>
    <path fill="#74b0e1" d="M 139.652344 131.816406 C 143.984375 131.816406 147.496094 128.308594 147.496094 123.980469 C 147.496094 119.648438 143.984375 116.140625 139.652344 116.140625 C 135.632812 116.140625 132.320312 119.164062 131.867188 123.0625 L 99.347656 123.0625 L 90.300781 132.101562 L 64.238281 132.101562 L 66.199219 134.0625 L 91.113281 134.0625 L 100.160156 125.019531 L 131.886719 125.019531 C 132.394531 128.855469 135.671875 131.816406 139.652344 131.816406 " fill-opacity="1" fill-rule="nonzero"/>
    <path fill="#74b0e1" d="M 67.777344 83.289062 L 70.546875 83.289062 L 85.238281 68.609375 L 115.027344 68.609375 C 115.527344 72.453125 118.8125 75.425781 122.796875 75.425781 C 127.128906 75.425781 130.640625 71.917969 130.640625 67.589844 C 130.640625 63.257812 127.128906 59.75 122.796875 59.75 C 118.78125 59.75 115.476562 62.765625 115.011719 66.652344 L 84.425781 66.652344 L 67.777344 83.289062 " fill-opacity="1" fill-rule="nonzero"/>
    <g clip-path="url(#591363cae1)">
        <path fill="#74b0e1" d="M 157.816406 101.027344 C 157.816406 96.699219 154.304688 93.191406 149.972656 93.191406 C 145.972656 93.191406 142.679688 96.183594 142.195312 100.050781 L 102.496094 100.050781 L 88.175781 85.738281 L 44.542969 85.738281 C 55.230469 58.753906 81.558594 39.660156 112.363281 39.660156 C 151.296875 39.660156 183.101562 70.148438 185.183594 108.542969 L 195.515625 108.542969 C 193.425781 64.453125 156.996094 29.347656 112.363281 29.347656 C 75.773438 29.347656 44.699219 52.941406 33.539062 85.738281 L 33.53125 85.738281 C 33.390625 86.15625 33.253906 86.582031 33.117188 87.007812 C 33.09375 87.078125 33.070312 87.148438 33.046875 87.21875 C 32.996094 87.378906 32.941406 87.535156 32.894531 87.695312 L 87.363281 87.695312 L 101.683594 102.007812 L 142.195312 102.007812 C 142.679688 105.875 145.972656 108.867188 149.972656 108.867188 C 154.304688 108.867188 157.816406 105.359375 157.816406 101.027344 " fill-opacity="1" fill-rule="nonzero"/>
    </g>
    <g clip-path="url(#8417681d61)">
        <path fill="#74b0e1" d="M 145.128906 158.507812 C 145.621094 162.359375 148.910156 165.339844 152.902344 165.339844 C 157.234375 165.339844 160.746094 161.828125 160.746094 157.5 C 160.746094 153.171875 157.234375 149.664062 152.902344 149.664062 C 148.890625 149.664062 145.59375 152.667969 145.121094 156.546875 L 85.238281 156.546875 L 47.042969 118.378906 L 29.320312 118.378906 C 29.367188 119.035156 29.421875 119.6875 29.480469 120.335938 L 46.234375 120.335938 L 84.425781 158.507812 L 145.128906 158.507812 " fill-opacity="1" fill-rule="nonzero"/>
    </g>
    <g clip-path="url(#1c8977339c)">
        <path fill="#74b0e1" d="M 60.921875 90.140625 L 46.234375 104.820312 L 29.476562 104.820312 C 29.414062 105.472656 29.363281 106.125 29.316406 106.777344 L 47.042969 106.777344 L 63.691406 90.140625 L 60.921875 90.140625 " fill-opacity="1" fill-rule="nonzero"/>
    </g>
    <g clip-path="url(#e9203d753b)">
        <path fill="#74b0e1" d="M 112.363281 195.742188 C 156.992188 195.742188 193.417969 160.644531 195.515625 116.5625 L 185.183594 116.5625 C 183.097656 154.945312 151.292969 185.433594 112.363281 185.433594 C 79.582031 185.433594 51.867188 163.808594 42.679688 134.0625 L 56.503906 134.0625 L 54.542969 132.101562 L 31.433594 132.101562 C 31.5 132.371094 31.570312 132.636719 31.636719 132.902344 C 31.632812 132.902344 31.632812 132.902344 31.628906 132.902344 C 31.703125 133.195312 31.78125 133.488281 31.859375 133.777344 C 31.882812 133.871094 31.90625 133.964844 31.929688 134.0625 L 31.933594 134.0625 C 41.421875 169.578125 73.832031 195.742188 112.363281 195.742188 " fill-opacity="1" fill-rule="nonzero"/>
    </g>
    <g clip-path="url(#44d09bb528)">
        <path fill="#74b0e1" d="M 210.925781 120.390625 C 215.257812 120.390625 218.769531 116.878906 218.769531 112.550781 C 218.769531 108.222656 215.257812 104.710938 210.925781 104.710938 C 206.925781 104.710938 203.632812 107.707031 203.148438 111.570312 L 29.125 111.570312 C 29.125 111.894531 29.113281 112.21875 29.113281 112.542969 C 29.113281 112.875 29.125 113.199219 29.125 113.53125 L 203.148438 113.53125 C 203.632812 117.394531 206.925781 120.390625 210.925781 120.390625 " fill-opacity="1" fill-rule="nonzero"/>
    </g>
</svg>